# xmcd
#
# Track frame offsets: 
#        151
#        18130
#        39769
#        48888
#        67289
#        79716
#        101920
#        115354
#        126210
#        147119
#        162574
#        177532
#        189796
#        211638
#        224792
#        236978
#        246427
#        267579
#        282435
#        304447
#        324205
#        341068
#
# Disc length: 4727 seconds
#
# Revision: 2
# Processed by: cddbd v1.5.2PL0 Copyright (c) Steve Scherf et al.
# Submitted via: ExactAudioCopy v0.99pb4
#
DISCID=56127516
DTITLE=Van Morrison and Friends - Talking To The Spirit
DYEAR=1988
DGENRE=Blues
TTITLE0=Tore Down A La Rimbaud
TTITLE1=In The Garden
TTITLE2=Rave On John Donne
TTITLE3=Did Ye Get Healed ?
TTITLE4=Star Of The Country Down
TTITLE5=She Moved Through The Fair
TTITLE6=Tá Mo Chleamhnas Déanta
TTITLE7=Tell Me Ma
TTITLE8=Carrickfergus
TTITLE9=Celtic Ray
TTITLE10=Marie´s Wedding
TTITLE11=Boffyflow And Spike
TTITLE12=Goodnight Irene
TTITLE13=Moondance
TTITLE14=T For Texas
TTITLE15=When I Was A Cowboy
TTITLE16=Sense Of Wonder
TTITLE17=Celtic Ray
TTITLE18=In The Garden
TTITLE19=Raglan Road
TTITLE20=Send In The Clowns
TTITLE21=Celtic Spring
EXTD=
EXTT0=
EXTT1=
EXTT2=
EXTT3=
EXTT4=
EXTT5=
EXTT6=
EXTT7=
EXTT8=
EXTT9=
EXTT10=
EXTT11=
EXTT12=
EXTT13=
EXTT14=
EXTT15=
EXTT16=
EXTT17=
EXTT18=
EXTT19=
EXTT20=
EXTT21=
PLAYORDER=
